<svg width="225" height="52" viewBox="0 0 225 52" fill="none" xmlns="http://www.w3.org/2000/svg">
<path d="M1.23382 52C0.859938 52 0.560829 51.8514 0.336497 51.5543C0.112166 51.2571 0 50.8609 0 50.3657V1.63429C0 1.13905 0.112166 0.742859 0.336497 0.445717C0.560829 0.148572 0.859938 0 1.23382 0H2.2994C2.67329 0 2.97239 0.148572 3.19673 0.445717C3.42106 0.742859 3.53322 1.13905 3.53322 1.63429V47.5429H22.8818C23.2931 47.5429 23.6109 47.6914 23.8352 47.9886C24.0596 48.2857 24.1717 48.7067 24.1717 49.2514V50.3657C24.1717 50.8609 24.0409 51.2571 23.7791 51.5543C23.5548 51.8514 23.2557 52 22.8818 52H1.23382Z" fill="#02003B"/>
<path d="M31.9589 52C31.585 52 31.2859 51.8514 31.0616 51.5543C30.8373 51.2571 30.7251 50.8609 30.7251 50.3657V1.70857C30.7251 1.21333 30.8373 0.817144 31.0616 0.520002C31.2859 0.173334 31.585 0 31.9589 0H32.9684C33.3797 0 33.6975 0.148572 33.9218 0.445717C34.1462 0.742859 34.2583 1.16381 34.2583 1.70857V21.0229L51.2514 1.11428C51.5506 0.817143 51.8497 0.569524 52.1488 0.371428C52.4853 0.123809 52.8965 0 53.3826 0H54.2799C54.579 0 54.8408 0.148572 55.0651 0.445717C55.2894 0.742859 55.4016 1.08953 55.4016 1.48572C55.4016 1.88191 55.3081 2.20381 55.1212 2.45143L36.1091 24.8857L56.2989 49.4743C56.5232 49.7714 56.6354 50.1181 56.6354 50.5143C56.6354 50.9105 56.5232 51.2571 56.2989 51.5543C56.0746 51.8514 55.8129 52 55.5137 52H54.5603C54.0743 52 53.663 51.9009 53.3265 51.7029C53.0274 51.4552 52.7283 51.1829 52.4292 50.8857L34.2583 28.8971V50.3657C34.2583 50.8609 34.1275 51.2571 33.8657 51.5543C33.6414 51.8514 33.3423 52 32.9684 52H31.9589Z" fill="#02003B"/>
<path d="M64.2736 52C63.8997 52 63.5819 51.8514 63.3202 51.5543C63.0959 51.2571 62.9837 50.8609 62.9837 50.3657V1.70857C62.9837 1.16381 63.0959 0.742859 63.3202 0.445717C63.5819 0.148572 63.8997 0 64.2736 0H65.6757C66.2365 0 66.6291 0.321905 66.8534 0.965715L79.5843 33.8L92.3712 0.965715C92.6329 0.321905 93.0255 0 93.5489 0H94.8949C95.3062 0 95.624 0.148572 95.8483 0.445717C96.0726 0.742859 96.1848 1.16381 96.1848 1.70857V50.3657C96.1848 50.8609 96.0539 51.2571 95.7922 51.5543C95.5679 51.8514 95.2688 52 94.8949 52H93.8854C93.5115 52 93.2124 51.8514 92.9881 51.5543C92.7637 51.2571 92.6516 50.8609 92.6516 50.3657V10.1029L81.9397 38.0343C81.6032 39.0248 81.0237 39.52 80.2012 39.52H78.9673C78.1448 39.52 77.5653 39.0248 77.2288 38.0343L66.5169 10.1029V50.3657C66.5169 50.8609 66.4048 51.2571 66.1804 51.5543C65.9561 51.8514 65.657 52 65.2831 52H64.2736Z" fill="#02003B"/>
<path d="M104.276 52C103.977 52 103.715 51.8514 103.491 51.5543C103.267 51.2571 103.154 50.9105 103.154 50.5143C103.154 50.1676 103.229 49.8457 103.379 49.5486L116.446 25.5543L103.883 2.45143C103.734 2.15429 103.659 1.83238 103.659 1.48572C103.659 1.08953 103.771 0.742859 103.996 0.445717C104.22 0.148572 104.482 0 104.781 0H106.127C106.613 0 107.043 0.371428 107.417 1.11428L118.689 21.9143L129.738 1.11428C130.149 0.371428 130.579 0 131.028 0H132.261C132.561 0 132.822 0.148572 133.047 0.445717C133.271 0.742859 133.383 1.08953 133.383 1.48572C133.383 1.83238 133.308 2.15429 133.159 2.45143L120.764 25.7029L133.776 49.5486C133.925 49.8457 134 50.1676 134 50.5143C134 50.9105 133.888 51.2571 133.663 51.5543C133.439 51.8514 133.177 52 132.878 52H131.532C131.084 52 130.654 51.6286 130.242 50.8857L118.521 29.4171L106.8 50.8857C106.426 51.6286 105.996 52 105.51 52H104.276Z" fill="#02003B"/>
<path d="M139.388 0.422872H146.259C149.266 0.422872 151.51 1.45656 152.99 3.52393C154.47 5.5913 155.21 8.65712 155.21 12.7214C155.21 16.7857 154.47 19.8515 152.99 21.9188C151.51 23.9862 149.266 25.0199 146.259 25.0199H139.388V0.422872ZM146.118 22.4474C148.092 22.4474 149.572 21.7661 150.558 20.4036C151.569 19.041 152.074 17.1146 152.074 14.6243V10.8185C152.074 8.32822 151.569 6.40181 150.558 5.03922C149.572 3.67663 148.092 2.99534 146.118 2.99534H142.348V22.4474H146.118Z" fill="#FF2D55"/>
<path d="M160.341 25.0199V0.422872H175.494V2.99534H163.301V11.2766H175.071V13.849H163.301V22.4474H175.494V25.0199H160.341Z" fill="#FF2D55"/>
<path d="M188.801 25.4428C186.593 25.4428 184.784 25.0434 183.374 24.2446C181.964 23.4224 180.802 22.377 179.885 21.1083L182.035 19.3464C182.998 20.5445 184.008 21.4372 185.065 22.0246C186.146 22.6119 187.427 22.9055 188.907 22.9055C190.692 22.9055 192.055 22.4944 192.994 21.6722C193.934 20.8499 194.404 19.6988 194.404 18.2187C194.404 17.0206 194.063 16.0926 193.382 15.4348C192.701 14.7535 191.514 14.2719 189.823 13.99L187.074 13.5319C185.876 13.3205 184.866 13.0033 184.044 12.5804C183.245 12.1576 182.599 11.6525 182.105 11.0651C181.612 10.4543 181.26 9.79653 181.048 9.09174C180.837 8.36346 180.731 7.61169 180.731 6.83642C180.731 4.58111 181.471 2.87788 182.951 1.72673C184.431 0.575576 186.428 0 188.942 0C190.915 0 192.571 0.3289 193.911 0.9867C195.273 1.6445 196.366 2.57247 197.188 3.7706L195.109 5.56781C194.427 4.67508 193.605 3.9468 192.642 3.38297C191.679 2.81914 190.434 2.53723 188.907 2.53723C187.239 2.53723 185.958 2.88962 185.065 3.59441C184.173 4.2992 183.726 5.35637 183.726 6.76595C183.726 7.87011 184.055 8.77459 184.713 9.47937C185.394 10.1607 186.604 10.654 188.343 10.9594L190.986 11.4175C192.184 11.629 193.194 11.9461 194.016 12.369C194.839 12.7919 195.496 13.297 195.99 13.8843C196.507 14.4716 196.871 15.1294 197.082 15.8577C197.294 16.586 197.399 17.3495 197.399 18.1482C197.399 20.427 196.647 22.2125 195.144 23.5046C193.664 24.7967 191.55 25.4428 188.801 25.4428Z" fill="#FF2D55"/>
<path d="M139 51.4494V49.0883H145.132V29.2134H139V26.8523H154.223V29.2134H148.092V49.0883H154.223V51.4494H139Z" fill="#FF2D55"/>
<path d="M162.914 30.623H162.667V51.4494H159.989V26.8523H164.182L172.569 47.4673H172.816V26.8523H175.494V51.4494H171.301L162.914 30.623Z" fill="#FF2D55"/>
<path d="M193.946 48.1721H193.77C193.558 48.642 193.311 49.1001 193.03 49.5465C192.748 49.9928 192.384 50.3922 191.937 50.7446C191.514 51.0735 190.997 51.3437 190.387 51.5551C189.776 51.7665 189.048 51.8723 188.202 51.8723C185.524 51.8723 183.527 50.7916 182.211 48.6302C180.919 46.4689 180.273 43.3678 180.273 39.3271C180.273 35.0983 180.989 31.8916 182.423 29.7067C183.856 27.5219 186.064 26.4295 189.048 26.4295C190.199 26.4295 191.197 26.5822 192.043 26.8876C192.889 27.193 193.605 27.6041 194.192 28.121C194.803 28.6378 195.308 29.2251 195.708 29.8829C196.107 30.5172 196.436 31.1633 196.694 31.8211L194.157 32.984C193.946 32.4436 193.699 31.9386 193.417 31.4687C193.159 30.9753 192.83 30.5525 192.43 30.2001C192.055 29.8242 191.596 29.5305 191.056 29.3191C190.516 29.1077 189.882 29.0019 189.153 29.0019C187.18 29.0019 185.723 29.742 184.784 31.222C183.867 32.7021 183.409 34.6755 183.409 37.1422V40.9481C183.409 42.1932 183.503 43.3326 183.691 44.3663C183.879 45.3765 184.184 46.2575 184.607 47.0092C185.054 47.761 185.618 48.3483 186.299 48.7712C187.004 49.1706 187.861 49.3703 188.871 49.3703C190.469 49.3703 191.714 48.8887 192.607 47.9254C193.499 46.9622 193.946 45.7171 193.946 44.1901V41.6529H188.766V39.2918H196.694V51.4494H193.946V48.1721Z" fill="#FF2D55"/>
<path d="M199.361 7.96221C199.361 6.05003 199.758 4.48366 200.553 3.26312C201.372 2.04258 202.413 1.03563 203.675 0.242274L205.429 2.1036C204.237 2.93764 203.348 3.81236 202.763 4.72777C202.179 5.66352 201.886 6.77218 201.886 8.05375C201.886 9.59978 202.296 10.7796 203.114 11.5933C203.933 12.407 205.079 12.8139 206.552 12.8139C207.745 12.8139 208.669 12.5189 209.323 11.929C210.002 11.339 210.481 10.3118 210.762 8.84711L211.218 6.46705C211.428 5.42958 211.744 4.55486 212.165 3.84288C212.586 3.15124 213.089 2.59182 213.673 2.16463C214.281 1.73744 214.936 1.4323 215.638 1.24922C216.363 1.06614 217.111 0.9746 217.883 0.9746C220.128 0.9746 221.824 1.61539 222.97 2.89696C224.116 4.17853 224.689 5.90763 224.689 8.08427C224.689 9.79303 224.361 11.2272 223.707 12.3867C223.052 13.5665 222.128 14.5125 220.935 15.2244L219.146 13.4241C220.035 12.8342 220.76 12.1222 221.321 11.2882C221.882 10.4542 222.163 9.37601 222.163 8.05375C222.163 6.60944 221.812 5.50078 221.111 4.72777C220.409 3.95476 219.356 3.56826 217.953 3.56826C216.854 3.56826 215.954 3.85305 215.252 4.42264C214.574 5.01257 214.083 6.0602 213.779 7.56554L213.323 9.85405C213.112 10.8915 212.796 11.7662 212.375 12.4782C211.954 13.1902 211.452 13.7598 210.867 14.187C210.282 14.6345 209.627 14.9498 208.902 15.1329C208.177 15.316 207.417 15.4075 206.622 15.4075C204.354 15.4075 202.576 14.7566 201.29 13.4547C200.004 12.1731 199.361 10.3423 199.361 7.96221Z" fill="#0CC7EE"/>
<path d="M199.781 25.0379L209.394 25.0379L224.268 17.6841L224.268 20.6134L217.883 23.6648L212.305 26.2584L212.305 26.3805L217.883 29.0352L224.268 32.0865L224.268 34.9548L209.394 27.601L199.781 27.601L199.781 25.0379Z" fill="#0CC7EE"/>
<path d="M199.361 44.5547C199.361 42.6425 199.758 41.0761 200.553 39.8556C201.372 38.635 202.413 37.6281 203.675 36.8347L205.429 38.6961C204.237 39.5301 203.348 40.4048 202.763 41.3202C202.179 42.256 201.886 43.3647 201.886 44.6462C201.886 46.1922 202.296 47.3721 203.114 48.1858C203.933 48.9995 205.079 49.4063 206.552 49.4063C207.745 49.4063 208.669 49.1114 209.323 48.5215C210.002 47.9315 210.481 46.9042 210.762 45.4396L211.218 43.0595C211.428 42.0221 211.744 41.1473 212.165 40.4353C212.586 39.7437 213.089 39.1843 213.673 38.7571C214.281 38.3299 214.936 38.0248 215.638 37.8417C216.363 37.6586 217.111 37.5671 217.883 37.5671C220.128 37.5671 221.824 38.2079 222.97 39.4894C224.116 40.771 224.689 42.5001 224.689 44.6767C224.689 46.3855 224.361 47.8196 223.707 48.9792C223.052 50.159 222.128 51.1049 220.935 51.8169L219.146 50.0166C220.035 49.4267 220.76 48.7147 221.321 47.8807C221.882 47.0466 222.163 45.9685 222.163 44.6462C222.163 43.2019 221.812 42.0933 221.111 41.3202C220.409 40.5472 219.356 40.1607 217.953 40.1607C216.854 40.1607 215.954 40.4455 215.252 41.0151C214.574 41.605 214.083 42.6527 213.779 44.158L213.323 46.4465C213.112 47.484 212.796 48.3587 212.375 49.0707C211.954 49.7827 211.452 50.3523 210.867 50.7795C210.282 51.227 209.627 51.5423 208.902 51.7254C208.177 51.9085 207.417 52 206.622 52C204.354 52 202.576 51.349 201.29 50.0471C200.004 48.7656 199.361 46.9347 199.361 44.5547Z" fill="#0CC7EE"/>
<g clip-path="url(#clip0)">
<rect x="51" y="16.3142" width="98" height="35" transform="rotate(-9.48531 51 16.3142)" fill="#FF0900"/>
<path d="M65.3452 39.264C65.2355 39.2823 65.1422 39.2641 65.0654 39.2093C64.9886 39.1546 64.941 39.0724 64.9227 38.9628L63.0935 28.0146C63.0752 27.905 63.0935 27.8118 63.1483 27.735C63.2031 27.6583 63.2854 27.6108 63.3951 27.5924L63.6748 27.5457C63.7845 27.5274 63.8778 27.5456 63.9546 27.6003C64.0314 27.6551 64.079 27.7373 64.0973 27.8469L64.2264 28.6195C64.718 27.6474 65.5672 27.0605 66.7739 26.8589C67.9587 26.661 68.894 26.8933 69.5798 27.556C70.2748 28.206 70.7303 29.0761 70.9463 30.1665C70.9756 30.2743 71.0113 30.4542 71.0534 30.7063C71.0955 30.9583 71.1203 31.1401 71.1276 31.2515C71.2778 32.3529 71.1308 33.3294 70.6867 34.1809C70.2517 35.0196 69.4419 35.5379 68.2571 35.7359C67.0613 35.9357 66.0675 35.6567 65.2756 34.8991L65.9265 38.7951C65.9448 38.9047 65.9266 38.9979 65.8717 39.0746C65.8169 39.1514 65.7346 39.1989 65.6249 39.2172L65.3452 39.264ZM67.999 34.7989C68.8876 34.6504 69.4882 34.2628 69.8007 33.6361C70.1224 32.9966 70.2255 32.2302 70.1101 31.337C70.1027 31.2256 70.0826 31.0713 70.0496 30.874C69.8793 29.8548 69.5427 29.0549 69.0398 28.4743C68.535 27.8827 67.7999 27.6676 66.8345 27.8289C65.9678 27.9737 65.3636 28.3731 65.0219 29.0273C64.6783 29.6705 64.555 30.3839 64.6521 31.1675L64.7428 31.8114L64.8663 32.4497C64.956 32.9191 65.1353 33.351 65.4042 33.7455C65.6712 34.1289 66.0251 34.4246 66.4658 34.6326C66.9065 34.8406 67.4176 34.8961 67.999 34.7989Z" fill="white"/>
<path d="M74.3684 34.5458C74.2587 34.5641 74.1654 34.5459 74.0886 34.4912C74.0118 34.4364 73.9643 34.3542 73.9459 34.2446L72.6413 26.4362C72.623 26.3266 72.6413 26.2335 72.6961 26.1567C72.7491 26.069 72.8305 26.016 72.9402 25.9976L73.2035 25.9536C73.3132 25.9353 73.4073 25.959 73.486 26.0247C73.5737 26.0777 73.6268 26.1589 73.6451 26.2685L73.7714 27.0247C74.04 26.2025 74.7228 25.6998 75.8199 25.5165L76.4287 25.4148C76.5384 25.3964 76.6317 25.4147 76.7085 25.4694C76.7853 25.5242 76.8329 25.6063 76.8512 25.7159L76.8896 25.9461C76.9079 26.0557 76.8897 26.1488 76.8348 26.2256C76.78 26.3024 76.6977 26.3499 76.588 26.3682L75.8804 26.4864C75.2222 26.5964 74.7332 26.8753 74.4133 27.323C74.0934 27.7707 73.9884 28.3234 74.0983 28.9809L74.9497 34.0769C74.968 34.1865 74.9443 34.2806 74.8785 34.3592C74.8237 34.436 74.7414 34.4835 74.6317 34.5018L74.3684 34.5458Z" fill="white"/>
<path d="M82.82 33.3027C81.6791 33.4933 80.7328 33.2966 79.9812 32.7125C79.2387 32.1155 78.7585 31.2664 78.5407 30.165L78.4089 29.4773L78.31 28.7842C78.158 27.6718 78.3369 26.7181 78.8469 25.9232C79.366 25.1155 80.196 24.6164 81.3369 24.4257C82.4778 24.2351 83.4195 24.4383 84.162 25.0352C84.9136 25.6193 85.3984 26.4621 85.6162 27.5634C85.6455 27.6712 85.6894 27.9004 85.748 28.2511C85.8066 28.6018 85.8396 28.8329 85.8469 28.9443C85.999 30.0567 85.8154 31.0167 85.2963 31.8244C84.7864 32.6193 83.9609 33.1121 82.82 33.3027ZM82.6607 32.3492C83.4396 32.2191 84.0237 31.8681 84.4131 31.2961C84.8115 30.7113 84.9503 29.9559 84.8294 29.0298C84.8221 28.9184 84.7937 28.7147 84.7442 28.4188C84.6948 28.1229 84.6554 27.9211 84.6262 27.8133C84.4394 26.8983 84.0635 26.2345 83.4984 25.822C82.9425 25.3966 82.2751 25.2491 81.4962 25.3792C80.7173 25.5093 80.1286 25.8668 79.7301 26.4516C79.3408 27.0235 79.2066 27.7726 79.3275 28.6986L79.4127 29.3096L79.5307 29.9151C79.7175 30.8302 80.0888 31.5004 80.6448 31.9257C81.2098 32.3382 81.8818 32.4794 82.6607 32.3492Z" fill="white"/>
<path d="M91.3665 31.7058C91.0593 31.7571 90.828 31.6549 90.6725 31.3993L86.3703 24.2776L86.3072 24.1022C86.2925 24.0146 86.3126 23.9324 86.3675 23.8556C86.4223 23.7789 86.4936 23.7331 86.5814 23.7185L86.9269 23.6607C87.0257 23.6442 87.107 23.6588 87.171 23.7044C87.246 23.7482 87.2991 23.7957 87.3302 23.8468L91.2977 30.4838L92.8921 22.9176C92.9049 22.8591 92.9341 22.7979 92.9798 22.7339C93.0365 22.6681 93.1142 22.627 93.2129 22.6105L93.5585 22.5527C93.6463 22.5381 93.7285 22.5581 93.8053 22.6129C93.8822 22.6676 93.9279 22.7389 93.9425 22.8265L93.9398 23.0129L92.1864 31.1463C92.1225 31.4387 91.937 31.6105 91.6298 31.6618L91.3665 31.7058Z" fill="white"/>
<path d="M95.7022 20.3865C95.5925 20.4049 95.4992 20.3866 95.4224 20.3319C95.3456 20.2771 95.2981 20.195 95.2798 20.0854L95.1754 19.4607C95.1571 19.3511 95.1753 19.2579 95.2302 19.1812C95.2832 19.0935 95.3645 19.0404 95.4742 19.0221L96.0995 18.9176C96.2092 18.8993 96.3034 18.923 96.3821 18.9887C96.4698 19.0416 96.5229 19.1229 96.5412 19.2325L96.6456 19.8572C96.6639 19.9668 96.6401 20.0608 96.5743 20.1394C96.5195 20.2162 96.4372 20.2637 96.3275 20.2821L95.7022 20.3865ZM97.6053 30.6634C97.4956 30.6817 97.4024 30.6635 97.3255 30.6088C97.2487 30.554 97.2012 30.4718 97.1829 30.3622L95.8755 22.5374C95.8572 22.4278 95.8754 22.3346 95.9303 22.2579C95.9851 22.1811 96.0674 22.1336 96.1771 22.1152L96.4568 22.0685C96.5665 22.0502 96.6598 22.0684 96.7366 22.1231C96.8134 22.1779 96.861 22.2601 96.8793 22.3697L98.1867 30.1945C98.205 30.3041 98.1867 30.3973 98.1319 30.474C98.077 30.5508 97.9948 30.5983 97.8851 30.6167L97.6053 30.6634Z" fill="white"/>
<path d="M103.65 29.8225C102.937 29.9416 102.313 29.9219 101.779 29.7633C101.256 29.6028 100.843 29.3902 100.539 29.1255C100.247 28.859 100.085 28.6326 100.054 28.4463C100.037 28.3476 100.063 28.2645 100.131 28.1969C100.196 28.1183 100.273 28.0717 100.361 28.057L100.608 28.0158C100.685 28.0029 100.748 28.0093 100.797 28.0348C100.856 28.0476 100.925 28.0923 101.005 28.169C101.304 28.4684 101.639 28.6883 102.012 28.8288C102.394 28.9564 102.887 28.9698 103.491 28.869C104.171 28.7554 104.698 28.5377 105.073 28.216C105.446 27.8833 105.592 27.4759 105.511 26.9937C105.462 26.6978 105.334 26.4713 105.127 26.3144C104.932 26.1556 104.631 26.0425 104.225 25.9751C103.828 25.895 103.242 25.8295 102.467 25.7788C101.454 25.7228 100.734 25.5332 100.308 25.2101C99.893 24.8852 99.636 24.4268 99.5371 23.835C99.4694 23.4295 99.515 23.0276 99.674 22.6293C99.8439 22.2292 100.129 21.8774 100.529 21.5739C100.941 21.2686 101.459 21.0637 102.084 20.9593C102.743 20.8493 103.316 20.8718 103.804 21.0268C104.301 21.169 104.685 21.3697 104.953 21.629C105.233 21.8864 105.389 22.1082 105.42 22.2945C105.436 22.3932 105.412 22.4818 105.346 22.5604C105.289 22.6262 105.211 22.6673 105.113 22.6838L104.866 22.725C104.712 22.7507 104.58 22.6996 104.468 22.5718C104.194 22.2797 103.9 22.0753 103.588 21.9585C103.284 21.829 102.836 21.8137 102.244 21.9127C101.607 22.019 101.147 22.2312 100.862 22.5492C100.576 22.8672 100.469 23.2399 100.541 23.6673C100.585 23.9303 100.687 24.1385 100.848 24.2919C101.009 24.4452 101.283 24.5684 101.671 24.6613C102.057 24.7433 102.608 24.8033 103.325 24.8412C104.384 24.9009 105.154 25.0877 105.634 25.4016C106.115 25.7156 106.409 26.1903 106.515 26.826C106.59 27.2753 106.533 27.7073 106.343 28.1221C106.153 28.5369 105.829 28.8951 105.372 29.1968C104.915 29.4984 104.341 29.707 103.65 29.8225Z" fill="white"/>
<path d="M107.465 18.4212C107.356 18.4395 107.262 18.4213 107.186 18.3665C107.109 18.3118 107.061 18.2296 107.043 18.12L106.938 17.4953C106.92 17.3857 106.938 17.2926 106.993 17.2158C107.046 17.1281 107.128 17.0751 107.237 17.0567L107.863 16.9523C107.972 16.9339 108.067 16.9576 108.145 17.0233C108.233 17.0763 108.286 17.1575 108.304 17.2671L108.409 17.8918C108.427 18.0014 108.403 18.0955 108.337 18.1741C108.283 18.2508 108.2 18.2984 108.091 18.3167L107.465 18.4212ZM109.368 28.698C109.259 28.7164 109.165 28.6982 109.089 28.6434C109.012 28.5886 108.964 28.5065 108.946 28.3969L107.639 20.572C107.62 20.4624 107.639 20.3692 107.693 20.2925C107.748 20.2157 107.83 20.1682 107.94 20.1499L108.22 20.1031C108.33 20.0848 108.423 20.103 108.5 20.1578C108.577 20.2125 108.624 20.2947 108.642 20.4043L109.95 28.2292C109.968 28.3388 109.95 28.4319 109.895 28.5087C109.84 28.5854 109.758 28.633 109.648 28.6513L109.368 28.698Z" fill="white"/>
<path d="M115.956 27.7664C114.815 27.957 113.869 27.7603 113.117 27.1761C112.375 26.5792 111.894 25.7301 111.677 24.6287L111.545 23.941L111.446 23.2478C111.294 22.1355 111.473 21.1818 111.983 20.3869C112.502 19.5792 113.332 19.0801 114.473 18.8894C115.614 18.6988 116.555 18.902 117.298 19.4989C118.05 20.083 118.534 20.9257 118.752 22.0271C118.781 22.1349 118.825 22.3641 118.884 22.7148C118.943 23.0655 118.976 23.2966 118.983 23.408C119.135 24.5204 118.951 25.4804 118.432 26.2881C117.922 27.083 117.097 27.5758 115.956 27.7664ZM115.797 26.8129C116.576 26.6828 117.16 26.3317 117.549 25.7598C117.947 25.175 118.086 24.4196 117.965 23.4935C117.958 23.3821 117.93 23.1784 117.88 22.8825C117.831 22.5866 117.791 22.3848 117.762 22.277C117.575 21.3619 117.199 20.6982 116.634 20.2856C116.078 19.8603 115.411 19.7127 114.632 19.8429C113.853 19.973 113.265 20.3305 112.866 20.9152C112.477 21.4872 112.343 22.2362 112.463 23.1623L112.549 23.7733L112.667 24.3788C112.853 25.2939 113.225 25.9641 113.781 26.3894C114.346 26.8019 115.018 26.9431 115.797 26.8129Z" fill="white"/>
<path d="M122.208 26.5528C122.098 26.5711 122.005 26.5529 121.928 26.4981C121.852 26.4434 121.804 26.3612 121.786 26.2516L120.478 18.4268C120.46 18.3172 120.478 18.224 120.533 18.1472C120.588 18.0705 120.67 18.0229 120.78 18.0046L121.06 17.9579C121.169 17.9395 121.263 17.9578 121.339 18.0125C121.416 18.0673 121.464 18.1494 121.482 18.259L121.611 19.0317C121.869 18.5493 122.188 18.1637 122.568 17.8748C122.959 17.5842 123.49 17.3829 124.159 17.2711C125.234 17.0915 126.12 17.2983 126.817 17.8916C127.512 18.4739 127.95 19.3076 128.131 20.3925L128.911 25.0611C128.929 25.1707 128.911 25.2639 128.856 25.3407C128.801 25.4174 128.719 25.465 128.609 25.4833L128.33 25.53C128.22 25.5484 128.127 25.5301 128.05 25.4754C127.973 25.4206 127.925 25.3384 127.907 25.2289L127.141 20.6424C126.993 19.7547 126.658 19.101 126.137 18.6811C125.626 18.2594 124.965 18.1164 124.154 18.2521C123.364 18.384 122.775 18.7415 122.387 19.3244C121.998 19.8964 121.877 20.6207 122.023 21.4975L122.79 26.0839C122.808 26.1935 122.79 26.2867 122.735 26.3634C122.68 26.4402 122.598 26.4877 122.488 26.506L122.208 26.5528Z" fill="white"/>
<path d="M133.884 24.7711C133.357 24.859 132.85 24.831 132.364 24.687C131.878 24.5429 131.466 24.3075 131.13 23.9807C130.804 23.6521 130.604 23.2631 130.529 22.8138C130.408 22.0905 130.6 21.4501 131.104 20.8927C131.62 20.3334 132.366 19.9047 133.342 19.6064L135.882 18.8103L135.785 18.2349C135.685 17.6322 135.421 17.2031 134.995 16.9476C134.578 16.6793 133.991 16.6084 133.234 16.7348C132.675 16.8283 132.232 17.0149 131.907 17.2946C131.593 17.5724 131.412 17.873 131.364 18.1963C131.342 18.3352 131.303 18.4375 131.246 18.5033C131.199 18.5563 131.126 18.591 131.027 18.6075L130.797 18.646C130.698 18.6625 130.605 18.6443 130.517 18.5914C130.438 18.5257 130.391 18.4435 130.374 18.3449C130.334 18.1038 130.397 17.806 130.563 17.4515C130.728 17.0861 131.02 16.7443 131.441 16.4262C131.861 16.1081 132.406 15.8932 133.075 15.7814C134.249 15.5853 135.129 15.7254 135.716 16.2019C136.303 16.6783 136.664 17.3165 136.797 18.1165L137.712 23.5907C137.73 23.7003 137.712 23.7934 137.657 23.8702C137.602 23.9469 137.52 23.9945 137.41 24.0128L137.131 24.0595C137.021 24.0779 136.928 24.0597 136.851 24.0049C136.774 23.9501 136.727 23.868 136.708 23.7584L136.579 22.9858C136.398 23.3877 136.093 23.7542 135.663 24.085C135.245 24.4141 134.651 24.6427 133.884 24.7711ZM133.889 23.7901C134.69 23.6563 135.304 23.2833 135.732 22.6711C136.159 22.0589 136.291 21.2597 136.126 20.2733L136.033 19.7144L133.959 20.365C133.08 20.6358 132.435 20.9577 132.023 21.3306C131.612 21.7035 131.444 22.1146 131.519 22.5639C131.603 23.068 131.876 23.4223 132.339 23.6266C132.813 23.8291 133.329 23.8836 133.889 23.7901Z" fill="white"/>
<path d="M140.753 23.4543C140.643 23.4726 140.55 23.4544 140.473 23.3997C140.397 23.3449 140.349 23.2627 140.331 23.1531L138.501 12.2049C138.483 12.0953 138.501 12.0021 138.556 11.9254C138.611 11.8486 138.693 11.8011 138.803 11.7828L139.083 11.736C139.192 11.7177 139.286 11.7359 139.363 11.7907C139.439 11.8454 139.487 11.9276 139.505 12.0372L141.334 22.9854C141.353 23.095 141.334 23.1882 141.28 23.265C141.225 23.3417 141.143 23.3892 141.033 23.4076L140.753 23.4543Z" fill="white"/>
</g>
<defs>
<clipPath id="clip0">
<rect x="51" y="16.3142" width="98" height="35" transform="rotate(-9.48531 51 16.3142)" fill="white"/>
</clipPath>
</defs>
</svg>
