<svg width="225" height="52" viewBox="0 0 225 52" fill="none" xmlns="http://www.w3.org/2000/svg">
<path d="M1.23382 52C0.859938 52 0.560829 51.8514 0.336497 51.5543C0.112166 51.2571 0 50.8609 0 50.3657V1.63429C0 1.13905 0.112166 0.742859 0.336497 0.445717C0.560829 0.148572 0.859938 0 1.23382 0H2.2994C2.67329 0 2.97239 0.148572 3.19673 0.445717C3.42106 0.742859 3.53322 1.13905 3.53322 1.63429V47.5429H22.8818C23.2931 47.5429 23.6109 47.6914 23.8352 47.9886C24.0596 48.2857 24.1717 48.7067 24.1717 49.2514V50.3657C24.1717 50.8609 24.0409 51.2571 23.7791 51.5543C23.5548 51.8514 23.2557 52 22.8818 52H1.23382Z" fill="#02003B"/>
<path d="M31.9589 52C31.585 52 31.2859 51.8514 31.0616 51.5543C30.8373 51.2571 30.7251 50.8609 30.7251 50.3657V1.70857C30.7251 1.21333 30.8373 0.817144 31.0616 0.520002C31.2859 0.173334 31.585 0 31.9589 0H32.9684C33.3797 0 33.6975 0.148572 33.9218 0.445717C34.1462 0.742859 34.2583 1.16381 34.2583 1.70857V21.0229L51.2514 1.11428C51.5506 0.817143 51.8497 0.569524 52.1488 0.371428C52.4853 0.123809 52.8965 0 53.3826 0H54.2799C54.579 0 54.8408 0.148572 55.0651 0.445717C55.2894 0.742859 55.4016 1.08953 55.4016 1.48572C55.4016 1.88191 55.3081 2.20381 55.1212 2.45143L36.1091 24.8857L56.2989 49.4743C56.5232 49.7714 56.6354 50.1181 56.6354 50.5143C56.6354 50.9105 56.5232 51.2571 56.2989 51.5543C56.0746 51.8514 55.8129 52 55.5137 52H54.5603C54.0743 52 53.663 51.9009 53.3265 51.7029C53.0274 51.4552 52.7283 51.1829 52.4292 50.8857L34.2583 28.8971V50.3657C34.2583 50.8609 34.1275 51.2571 33.8657 51.5543C33.6414 51.8514 33.3423 52 32.9684 52H31.9589Z" fill="#02003B"/>
<path d="M64.2736 52C63.8997 52 63.5819 51.8514 63.3202 51.5543C63.0959 51.2571 62.9837 50.8609 62.9837 50.3657V1.70857C62.9837 1.16381 63.0959 0.742859 63.3202 0.445717C63.5819 0.148572 63.8997 0 64.2736 0H65.6757C66.2365 0 66.6291 0.321905 66.8534 0.965715L79.5843 33.8L92.3712 0.965715C92.6329 0.321905 93.0255 0 93.5489 0H94.8949C95.3062 0 95.624 0.148572 95.8483 0.445717C96.0726 0.742859 96.1848 1.16381 96.1848 1.70857V50.3657C96.1848 50.8609 96.0539 51.2571 95.7922 51.5543C95.5679 51.8514 95.2688 52 94.8949 52H93.8854C93.5115 52 93.2124 51.8514 92.9881 51.5543C92.7637 51.2571 92.6516 50.8609 92.6516 50.3657V10.1029L81.9397 38.0343C81.6032 39.0248 81.0237 39.52 80.2012 39.52H78.9673C78.1448 39.52 77.5653 39.0248 77.2288 38.0343L66.5169 10.1029V50.3657C66.5169 50.8609 66.4048 51.2571 66.1804 51.5543C65.9561 51.8514 65.657 52 65.2831 52H64.2736Z" fill="#02003B"/>
<path d="M104.276 52C103.977 52 103.715 51.8514 103.491 51.5543C103.267 51.2571 103.154 50.9105 103.154 50.5143C103.154 50.1676 103.229 49.8457 103.379 49.5486L116.446 25.5543L103.883 2.45143C103.734 2.15429 103.659 1.83238 103.659 1.48572C103.659 1.08953 103.771 0.742859 103.996 0.445717C104.22 0.148572 104.482 0 104.781 0H106.127C106.613 0 107.043 0.371428 107.417 1.11428L118.689 21.9143L129.738 1.11428C130.149 0.371428 130.579 0 131.028 0H132.261C132.561 0 132.822 0.148572 133.047 0.445717C133.271 0.742859 133.383 1.08953 133.383 1.48572C133.383 1.83238 133.308 2.15429 133.159 2.45143L120.764 25.7029L133.776 49.5486C133.925 49.8457 134 50.1676 134 50.5143C134 50.9105 133.888 51.2571 133.663 51.5543C133.439 51.8514 133.177 52 132.878 52H131.532C131.084 52 130.654 51.6286 130.242 50.8857L118.521 29.4171L106.8 50.8857C106.426 51.6286 105.996 52 105.51 52H104.276Z" fill="#02003B"/>
<path d="M139.388 0.422872H146.259C149.266 0.422872 151.51 1.45656 152.99 3.52393C154.47 5.5913 155.21 8.65712 155.21 12.7214C155.21 16.7857 154.47 19.8515 152.99 21.9188C151.51 23.9862 149.266 25.0199 146.259 25.0199H139.388V0.422872ZM146.118 22.4474C148.092 22.4474 149.572 21.7661 150.558 20.4036C151.569 19.041 152.074 17.1146 152.074 14.6243V10.8185C152.074 8.32822 151.569 6.40181 150.558 5.03922C149.572 3.67663 148.092 2.99534 146.118 2.99534H142.348V22.4474H146.118Z" fill="#FF2D55"/>
<path d="M160.341 25.0199V0.422872H175.494V2.99534H163.301V11.2766H175.071V13.849H163.301V22.4474H175.494V25.0199H160.341Z" fill="#FF2D55"/>
<path d="M188.801 25.4428C186.593 25.4428 184.784 25.0434 183.374 24.2446C181.964 23.4224 180.802 22.377 179.885 21.1083L182.035 19.3464C182.998 20.5445 184.008 21.4372 185.065 22.0246C186.146 22.6119 187.427 22.9055 188.907 22.9055C190.692 22.9055 192.055 22.4944 192.994 21.6722C193.934 20.8499 194.404 19.6988 194.404 18.2187C194.404 17.0206 194.063 16.0926 193.382 15.4348C192.701 14.7535 191.514 14.2719 189.823 13.99L187.074 13.5319C185.876 13.3205 184.866 13.0033 184.044 12.5804C183.245 12.1576 182.599 11.6525 182.105 11.0651C181.612 10.4543 181.26 9.79653 181.048 9.09174C180.837 8.36346 180.731 7.61169 180.731 6.83642C180.731 4.58111 181.471 2.87788 182.951 1.72673C184.431 0.575576 186.428 0 188.942 0C190.915 0 192.571 0.3289 193.911 0.9867C195.273 1.6445 196.366 2.57247 197.188 3.7706L195.109 5.56781C194.427 4.67508 193.605 3.9468 192.642 3.38297C191.679 2.81914 190.434 2.53723 188.907 2.53723C187.239 2.53723 185.958 2.88962 185.065 3.59441C184.173 4.2992 183.726 5.35637 183.726 6.76595C183.726 7.87011 184.055 8.77459 184.713 9.47937C185.394 10.1607 186.604 10.654 188.343 10.9594L190.986 11.4175C192.184 11.629 193.194 11.9461 194.016 12.369C194.839 12.7919 195.496 13.297 195.99 13.8843C196.507 14.4716 196.871 15.1294 197.082 15.8577C197.294 16.586 197.399 17.3495 197.399 18.1482C197.399 20.427 196.647 22.2125 195.144 23.5046C193.664 24.7967 191.55 25.4428 188.801 25.4428Z" fill="#FF2D55"/>
<path d="M139 51.4494V49.0883H145.132V29.2134H139V26.8523H154.223V29.2134H148.092V49.0883H154.223V51.4494H139Z" fill="#FF2D55"/>
<path d="M162.914 30.623H162.667V51.4494H159.989V26.8523H164.182L172.569 47.4673H172.816V26.8523H175.494V51.4494H171.301L162.914 30.623Z" fill="#FF2D55"/>
<path d="M193.946 48.1721H193.77C193.558 48.642 193.311 49.1001 193.03 49.5465C192.748 49.9928 192.384 50.3922 191.937 50.7446C191.514 51.0735 190.997 51.3437 190.387 51.5551C189.776 51.7665 189.048 51.8723 188.202 51.8723C185.524 51.8723 183.527 50.7916 182.211 48.6302C180.919 46.4689 180.273 43.3678 180.273 39.3271C180.273 35.0983 180.989 31.8916 182.423 29.7067C183.856 27.5219 186.064 26.4295 189.048 26.4295C190.199 26.4295 191.197 26.5822 192.043 26.8876C192.889 27.193 193.605 27.6041 194.192 28.121C194.803 28.6378 195.308 29.2251 195.708 29.8829C196.107 30.5172 196.436 31.1633 196.694 31.8211L194.157 32.984C193.946 32.4436 193.699 31.9386 193.417 31.4687C193.159 30.9753 192.83 30.5525 192.43 30.2001C192.055 29.8242 191.596 29.5305 191.056 29.3191C190.516 29.1077 189.882 29.0019 189.153 29.0019C187.18 29.0019 185.723 29.742 184.784 31.222C183.867 32.7021 183.409 34.6755 183.409 37.1422V40.9481C183.409 42.1932 183.503 43.3326 183.691 44.3663C183.879 45.3765 184.184 46.2575 184.607 47.0092C185.054 47.761 185.618 48.3483 186.299 48.7712C187.004 49.1706 187.861 49.3703 188.871 49.3703C190.469 49.3703 191.714 48.8887 192.607 47.9254C193.499 46.9622 193.946 45.7171 193.946 44.1901V41.6529H188.766V39.2918H196.694V51.4494H193.946V48.1721Z" fill="#FF2D55"/>
<path d="M199.361 7.96221C199.361 6.05003 199.758 4.48366 200.553 3.26312C201.372 2.04258 202.413 1.03563 203.675 0.242274L205.429 2.1036C204.237 2.93764 203.348 3.81236 202.763 4.72777C202.179 5.66352 201.886 6.77218 201.886 8.05375C201.886 9.59978 202.296 10.7796 203.114 11.5933C203.933 12.407 205.079 12.8139 206.552 12.8139C207.745 12.8139 208.669 12.5189 209.323 11.929C210.002 11.339 210.481 10.3118 210.762 8.84711L211.218 6.46705C211.428 5.42958 211.744 4.55486 212.165 3.84288C212.586 3.15124 213.089 2.59182 213.673 2.16463C214.281 1.73744 214.936 1.4323 215.638 1.24922C216.363 1.06614 217.111 0.9746 217.883 0.9746C220.128 0.9746 221.824 1.61539 222.97 2.89696C224.116 4.17853 224.689 5.90763 224.689 8.08427C224.689 9.79303 224.361 11.2272 223.707 12.3867C223.052 13.5665 222.128 14.5125 220.935 15.2244L219.146 13.4241C220.035 12.8342 220.76 12.1222 221.321 11.2882C221.882 10.4542 222.163 9.37601 222.163 8.05375C222.163 6.60944 221.812 5.50078 221.111 4.72777C220.409 3.95476 219.356 3.56826 217.953 3.56826C216.854 3.56826 215.954 3.85305 215.252 4.42264C214.574 5.01257 214.083 6.0602 213.779 7.56554L213.323 9.85405C213.112 10.8915 212.796 11.7662 212.375 12.4782C211.954 13.1902 211.452 13.7598 210.867 14.187C210.282 14.6345 209.627 14.9498 208.902 15.1329C208.177 15.316 207.417 15.4075 206.622 15.4075C204.354 15.4075 202.576 14.7566 201.29 13.4547C200.004 12.1731 199.361 10.3423 199.361 7.96221Z" fill="#0CC7EE"/>
<path d="M199.781 25.0379L209.394 25.0379L224.268 17.6841L224.268 20.6134L217.883 23.6648L212.305 26.2584L212.305 26.3805L217.883 29.0352L224.268 32.0865L224.268 34.9548L209.394 27.601L199.781 27.601L199.781 25.0379Z" fill="#0CC7EE"/>
<path d="M199.361 44.5547C199.361 42.6425 199.758 41.0761 200.553 39.8556C201.372 38.635 202.413 37.6281 203.675 36.8347L205.429 38.6961C204.237 39.5301 203.348 40.4048 202.763 41.3202C202.179 42.256 201.886 43.3647 201.886 44.6462C201.886 46.1922 202.296 47.3721 203.114 48.1858C203.933 48.9995 205.079 49.4063 206.552 49.4063C207.745 49.4063 208.669 49.1114 209.323 48.5215C210.002 47.9315 210.481 46.9042 210.762 45.4396L211.218 43.0595C211.428 42.0221 211.744 41.1473 212.165 40.4353C212.586 39.7437 213.089 39.1843 213.673 38.7571C214.281 38.3299 214.936 38.0248 215.638 37.8417C216.363 37.6586 217.111 37.5671 217.883 37.5671C220.128 37.5671 221.824 38.2079 222.97 39.4894C224.116 40.771 224.689 42.5001 224.689 44.6767C224.689 46.3855 224.361 47.8196 223.707 48.9792C223.052 50.159 222.128 51.1049 220.935 51.8169L219.146 50.0166C220.035 49.4267 220.76 48.7147 221.321 47.8807C221.882 47.0466 222.163 45.9685 222.163 44.6462C222.163 43.2019 221.812 42.0933 221.111 41.3202C220.409 40.5472 219.356 40.1607 217.953 40.1607C216.854 40.1607 215.954 40.4455 215.252 41.0151C214.574 41.605 214.083 42.6527 213.779 44.158L213.323 46.4465C213.112 47.484 212.796 48.3587 212.375 49.0707C211.954 49.7827 211.452 50.3523 210.867 50.7795C210.282 51.227 209.627 51.5423 208.902 51.7254C208.177 51.9085 207.417 52 206.622 52C204.354 52 202.576 51.349 201.29 50.0471C200.004 48.7656 199.361 46.9347 199.361 44.5547Z" fill="#0CC7EE"/>
</svg>
